<?xml version="1.0" encoding="UTF-8"?>
<svg id="Calque_2" data-name="Calque 2" xmlns="http://www.w3.org/2000/svg" viewBox="0 0 196 227">
  <defs>
    <style>
      .cls-1 {
        stroke-width: 15px;
      }

      .cls-1, .cls-2 {
        fill: #fff;
        stroke: #fff;
        stroke-miterlimit: 10;
      }

      .cls-3 {
        fill: #22b573;
      }
    </style>
  </defs>
  <g id="Calque_1-2" data-name="Calque 1">
    <g>
      <rect class="cls-3" width="196" height="227" rx="42.52" ry="42.52"/>
      <g>
        <path class="cls-2" d="M64.69,172.88c-9.46-6.82-14.59-16.83-15.39-30.01h40.59c.57,7,3.67,10.49,9.29,10.49,2.06,0,3.81-.49,5.25-1.46,1.43-.97,2.15-2.49,2.15-4.56,0-2.86-1.55-5.19-4.64-6.97-3.1-1.78-7.91-3.81-14.45-6.11-7.8-2.75-14.25-5.45-19.35-8.08-5.1-2.64-9.49-6.48-13.16-11.52-3.67-5.04-5.45-11.52-5.33-19.44,0-7.91,2.03-14.65,6.11-20.21,4.07-5.56,9.63-9.77,16.68-12.64,7.05-2.87,14.99-4.3,23.82-4.3,14.9,0,26.75,3.44,35.52,10.32,8.77,6.88,13.39,16.57,13.85,29.07h-41.11c-.12-3.44-.98-5.9-2.58-7.4-1.61-1.49-3.56-2.24-5.85-2.24-1.61,0-2.92,.55-3.96,1.63-1.03,1.09-1.55,2.61-1.55,4.56,0,2.75,1.52,5.02,4.56,6.79,3.04,1.78,7.88,3.93,14.53,6.45,7.68,2.87,14.02,5.62,19.01,8.26,4.99,2.64,9.31,6.31,12.99,11.01,3.67,4.7,5.5,10.61,5.5,17.72s-1.84,14.13-5.5,20.04c-3.67,5.91-9,10.52-16,13.85-7,3.33-15.31,4.99-24.94,4.99-14.56,0-26.57-3.41-36.03-10.23Z"/>
        <line class="cls-1" x1="48.99" y1="39.26" x2="147.5" y2="39.32"/>
      </g>
    </g>
  </g>
</svg>